<?xml version="1.0" encoding="utf-8"?>
<!-- Generator: Adobe Illustrator 19.1.0, SVG Export Plug-In . SVG Version: 6.00 Build 0)  -->
<svg version="1.1" id="Layer_1" xmlns="http://www.w3.org/2000/svg" xmlns:xlink="http://www.w3.org/1999/xlink" x="0px" y="0px"
	 viewBox="0 0 1122 270" style="enable-background:new 0 0 1122 270;" xml:space="preserve">
<style type="text/css">
	.st0{fill:#DCDCDC;}
	.st1{fill:#F3F3F3;}
	.st2{fill:#E18E87;}
	.st3{fill:#FBE370;}
	.st4{fill:#3A3A3A;}
	.st5{fill:#5060AD;}
	.st6{fill:#6C86E5;}
	.st7{fill:#B2B2B2;}
	.st8{fill:#EAE68A;}
	.st9{fill:#40A6A9;}
	.st10{fill:none;stroke:#DCDCDC;stroke-miterlimit:10;}
	.st11{fill:none;stroke:#DCDCDC;stroke-width:1.1575;stroke-miterlimit:10;}
	.st12{fill:none;stroke:#DCDCDC;stroke-width:0.875;stroke-miterlimit:10;}
</style>
<g>
	<path class="st0" d="M962.9,247.6c0,1.6-1.4,3-3,3H854.2c-1.7,0-3-1.4-3-3V106.3c0-1.7,1.3-3,3-3h105.7c1.6,0,3,1.3,3,3V247.6z"/>
</g>
<g>
	<path class="st1" d="M961.7,246.3c0,1.6-1.4,3-3,3H853c-1.7,0-3-1.4-3-3V105c0-1.7,1.3-3,3-3h105.7c1.6,0,3,1.3,3,3V246.3z"/>
</g>
<g id="Lápiz_2_">
	<path class="st2" d="M900.4,63.1c0,0-5.2-0.2-5.6,0c-2.7,1.4-3.1,7.2,0,8.9c0.6,0.3,5.6,0,5.6,0V63.1z"/>
	<polygon class="st3" points="1042.8,63.1 1058,67.6 1042.8,72.1 	"/>
	<polygon class="st4" points="1053.2,66.2 1053.2,69.1 1058,67.6 	"/>
	<path class="st3" d="M897.6,63.1c0,0,1.6,1.5,0,3.1c0,0,1.8,1.8-0.2,3c0,0,1.8,1.6,0,3.1l3-0.1v-8.9L897.6,63.1z"/>
	<path class="st5" d="M1042.8,63.1H900.4v3h142.5C1045,64.7,1042.8,63.1,1042.8,63.1z"/>
	<path class="st6" d="M1042.8,66.1H900.4v3h142.5C1045,67.6,1042.8,66.1,1042.8,66.1z"/>
	<path class="st5" d="M1042.8,69.1H900.4v3h142.5C1045,70.6,1042.8,69.1,1042.8,69.1z"/>
</g>
<g id="Moleskine_1_">
	<path class="st7" d="M173.1,151.4h21h2.6c1.6,0,2.9-1.3,2.9-2.9V34.2c0-1.6-1.3-2.9-2.9-2.9h-2.6h-21h-53.7v120.1H173.1z"/>
	<path class="st0" d="M173.1,150.2h21h2.6c1.6,0,2.9-1.3,2.9-2.9V33c0-1.6-1.3-2.9-2.9-2.9h-2.6h-21h-53.7v120.1H173.1z"/>
	<path class="st1" d="M173.1,149.6h21h2.6c1.6,0,2.9-1.3,2.9-2.9V32.4c0-1.6-1.3-2.9-2.9-2.9h-2.6h-21h-53.7v120.1H173.1z"/>
	<path class="st0" d="M173.1,148.2h21h2.6c1.6,0,2.9-1.3,2.9-2.9V31c0-1.6-1.3-2.9-2.9-2.9h-2.6h-21h-53.7v120.1H173.1z"/>
	<path class="st1" d="M173.1,147.6h21h2.6c1.6,0,2.9-1.3,2.9-2.9V30.4c0-1.6-1.3-2.9-2.9-2.9h-2.6h-21h-53.7v120.1H173.1z"/>
	<path class="st0" d="M173.1,146.1h21h2.6c1.6,0,2.9-1.3,2.9-2.9V28.9c0-1.6-1.3-2.9-2.9-2.9h-2.6h-21h-53.7v120.1H173.1z"/>
	<path class="st1" d="M173.1,145.6h21h2.6c1.6,0,2.9-1.3,2.9-2.9V28.3c0-1.6-1.3-2.9-2.9-2.9h-2.6h-21h-53.7v120.1H173.1z"/>
	<path class="st7" d="M173.1,143.8h21h2.6c1.6,0,2.9-1.3,2.9-2.9V26.6c0-1.6-1.3-2.9-2.9-2.9h-2.6h-21h-53.7v120.1H173.1z"/>
	<polygon class="st2" points="177.1,22.8 177.1,23.7 177.1,151.4 177.1,152.3 183.7,152.3 183.7,151.4 183.7,23.7 183.7,22.8 	"/>
	<rect x="119.4" y="141.5" class="st7" width="1.5" height="9.6"/>
</g>
<g id="Clips_1_">
	<path class="st0" d="M358.2,156.9h-14.1c0,0-3.3,0.4-3.3-3.2c0-3.6,2.9-3.6,2.9-3.6l18.2,0c0,0,2,0,2,2.4c0,2.3-1.9,2.2-1.9,2.2
		h-13.6c0,0-1.5,0.2-1.5-1.2c0-1.5,1.5-1.3,1.5-1.3l8.6,0c0,0,0.7,0,0.7-0.6c0-0.6-0.7-0.7-0.7-0.7h-8.6c0,0-2.8-0.1-2.8,2.6
		c0,2.8,2.8,2.6,2.8,2.6l13.6,0c0,0,2.9-0.1,2.9-3.6c0-3.3-2.3-3.7-3.2-3.7c-0.9,0-18.2,0-18.2,0s-4.2-0.4-4.2,5
		c0,5.1,4.5,4.4,4.5,4.4h14.1c0,0,0.6,0,0.6-0.6C358.8,156.9,358.2,156.9,358.2,156.9z"/>
	<path class="st2" d="M320,135.6l-10-10c0,0-2.6-2,0-4.6c2.6-2.6,4.6-0.5,4.6-0.5l12.9,12.9c0,0,1.4,1.4-0.3,3.1
		c-1.7,1.7-2.9,0.3-2.9,0.3l-9.6-9.6c0,0-1.2-0.9-0.2-1.9c1.1-1.1,2,0.2,2,0.2l6.1,6.1c0,0,0.5,0.5,1,0.1c0.4-0.4,0-1,0-1l-6.1-6.1
		c0,0-1.9-2.1-3.9-0.2c-2,2,0.2,3.9,0.2,3.9l9.7,9.6c0,0,2.1,2,4.6-0.5c2.3-2.3,1-4.3,0.4-4.9c-0.6-0.6-12.9-12.9-12.9-12.9
		s-2.7-3.2-6.5,0.6c-3.6,3.6,0.1,6.3,0.1,6.3l10,10c0,0,0.4,0.5,0.9,0C320.4,136,320,135.6,320,135.6z"/>
	<path class="st8" d="M383.8,121.8h-14.1c0,0-3.3,0.4-3.3-3.2c0-3.6,2.9-3.6,2.9-3.6l18.2,0c0,0,2,0,2,2.4c0,2.3-1.9,2.2-1.9,2.2
		h-13.6c0,0-1.5,0.2-1.5-1.2c0-1.5,1.5-1.3,1.5-1.3l8.6,0c0,0,0.7,0,0.7-0.6c0-0.6-0.7-0.7-0.7-0.7h-8.6c0,0-2.8-0.1-2.8,2.6
		c0,2.8,2.8,2.6,2.8,2.6l13.6,0c0,0,2.9-0.1,2.9-3.6c0-3.3-2.3-3.7-3.2-3.7c-0.9,0-18.2,0-18.2,0s-4.2-0.4-4.2,5
		c0,5.1,4.5,4.4,4.5,4.4h14.1c0,0,0.6,0,0.6-0.6C384.4,121.8,383.8,121.8,383.8,121.8z"/>
	<path class="st9" d="M280.2,172.1V158c0,0-0.4-3.3,3.2-3.3c3.6,0,3.6,2.9,3.6,2.9l0,18.2c0,0,0,2-2.4,2c-2.3,0-2.2-1.9-2.2-1.9
		v-13.6c0,0-0.2-1.5,1.2-1.5c1.5,0,1.3,1.5,1.3,1.5l0,8.6c0,0,0,0.7,0.6,0.7c0.6,0,0.7-0.7,0.7-0.7v-8.6c0,0,0.1-2.8-2.6-2.8
		c-2.8,0-2.6,2.8-2.6,2.8l0,13.6c0,0,0.1,2.9,3.6,2.9c3.3,0,3.7-2.3,3.7-3.2c0-0.9,0-18.2,0-18.2s0.4-4.2-5-4.2
		c-5.1,0-4.4,4.5-4.4,4.5v14.1c0,0,0,0.6,0.6,0.6C280.2,172.7,280.2,172.1,280.2,172.1z"/>
</g>
<g id="Clips_2_">
	<path class="st0" d="M990.7,149.1l-10-10c0,0-2.6-2,0-4.6c2.6-2.6,4.6-0.5,4.6-0.5l12.9,12.9c0,0,1.4,1.4-0.3,3.1
		c-1.7,1.7-2.9,0.3-2.9,0.3l-9.6-9.6c0,0-1.2-0.9-0.2-1.9c1.1-1.1,2,0.2,2,0.2l6.1,6.1c0,0,0.5,0.5,1,0.1c0.4-0.4,0-1,0-1l-6.1-6.1
		c0,0-1.9-2.1-3.9-0.2c-2,2,0.2,3.9,0.2,3.9l9.7,9.6c0,0,2.1,2,4.6-0.5c2.3-2.3,1-4.3,0.4-4.9c-0.6-0.6-12.9-12.9-12.9-12.9
		s-2.7-3.2-6.5,0.6c-3.6,3.6,0.1,6.3,0.1,6.3l10,10c0,0,0.4,0.5,0.9,0C991.1,149.5,990.7,149.1,990.7,149.1z"/>
	<path class="st9" d="M997,106.6l10-10c0,0,2-2.6,4.6,0c2.6,2.6,0.5,4.6,0.5,4.6L999.1,114c0,0-1.4,1.4-3.1-0.3
		c-1.7-1.7-0.3-2.9-0.3-2.9l9.6-9.6c0,0,0.9-1.2,1.9-0.2c1.1,1.1-0.2,2-0.2,2l-6.1,6.1c0,0-0.5,0.5-0.1,1c0.4,0.4,1,0,1,0l6.1-6.1
		c0,0,2.1-1.9,0.2-3.9c-2-2-3.9,0.2-3.9,0.2l-9.6,9.7c0,0-2,2.1,0.5,4.6c2.3,2.3,4.3,1,4.9,0.4c0.6-0.6,12.9-12.9,12.9-12.9
		s3.2-2.7-0.6-6.5c-3.6-3.6-6.3,0.1-6.3,0.1l-10,10c0,0-0.5,0.4,0,0.9C996.6,107,997,106.6,997,106.6z"/>
</g>
<g>
	<ellipse class="st10" cx="897" cy="123.7" rx="32" ry="0"/>
	<ellipse class="st11" cx="907.9" cy="146.5" rx="42.9" ry="0"/>
	<ellipse class="st11" cx="907.9" cy="154.5" rx="42.9" ry="0"/>
	<ellipse class="st11" cx="907.9" cy="162.5" rx="42.9" ry="0"/>
	<ellipse class="st11" cx="907.9" cy="170.5" rx="42.9" ry="0"/>
	<ellipse class="st11" cx="907.9" cy="178.5" rx="42.9" ry="0"/>
	<ellipse class="st11" cx="907.9" cy="186.5" rx="42.9" ry="0"/>
	<ellipse class="st12" cx="889.5" cy="219" rx="24.5" ry="0"/>
	<ellipse class="st12" cx="889.5" cy="227" rx="24.5" ry="0"/>
</g>
</svg>
