<?xml version="1.0" encoding="utf-8"?>
<!-- Generator: Adobe Illustrator 21.1.0, SVG Export Plug-In . SVG Version: 6.00 Build 0)  -->
<svg version="1.1" id="Layer_1" xmlns="http://www.w3.org/2000/svg" xmlns:xlink="http://www.w3.org/1999/xlink" x="0px" y="0px"
	 viewBox="0 0 300 250" style="enable-background:new 0 0 300 250;" xml:space="preserve">
<style type="text/css">
	.st0{filter:url(#Adobe_OpacityMaskFilter);}
	.st1{fill:#FFFFFF;}
	.st2{mask:url(#mask-2);}
	.st3{fill:#DCDCDC;}
	.st4{fill:#F3F3F3;}
	.st5{fill:#E18E87;}
	.st6{fill:#FBE370;}
	.st7{fill:#3A3A3A;}
	.st8{fill:#5060AD;}
	.st9{fill:#6C86E5;}
	.st10{fill:#40A6A9;}
	.st11{fill:none;stroke:#DCDCDC;}
	.st12{fill:none;stroke:#DCDCDC;stroke-width:1.1575;}
	.st13{fill:none;stroke:#DCDCDC;stroke-width:0.875;}
	.st14{fill:#EAE68A;}
</style>
<title>illustration</title>
<desc>Created with Sketch.</desc>
<g id="Page-1">
	<g id="Desktop" transform="translate(0.000000, -561.000000)">
		<g id="illustration" transform="translate(0.000000, 560.000000)">
			<g id="Rectangle-2">
			</g>
			<defs>
				<filter id="Adobe_OpacityMaskFilter" filterUnits="userSpaceOnUse" x="19" y="18" width="274.4" height="166">
					<feColorMatrix  type="matrix" values="1 0 0 0 0  0 1 0 0 0  0 0 1 0 0  0 0 0 1 0"/>
				</filter>
			</defs>
			<mask maskUnits="userSpaceOnUse" x="19" y="18" width="274.4" height="166" id="mask-2">
				<g class="st0">
					<rect id="path-1" y="2" class="st1" width="300" height="240"/>
				</g>
			</mask>
			<g id="Group-2" class="st2">
				<g transform="translate(-21.000000, 1.000000)">
					<path id="Shape" class="st3" d="M240.8,180.7c0,1.2-1.1,2.3-2.3,2.3h-81.8c-1.3,0-2.3-1.1-2.3-2.3V71.4c0-1.3,1-2.3,2.3-2.3
						h81.8c1.2,0,2.3,1,2.3,2.3V180.7L240.8,180.7z"/>
					<path id="Shape_1_" class="st4" d="M240.8,178.7c0,1.2-1.1,2.3-2.3,2.3h-81.8c-1.3,0-2.3-1.1-2.3-2.3V69.4c0-1.3,1-2.3,2.3-2.3
						h81.8c1.2,0,2.3,1,2.3,2.3V178.7z"/>
					<g id="Lápiz_2_" transform="translate(180.000000, 84.000000)">
						<path id="Shape_2_" class="st5" d="M12.9-46.9c0,0-4-0.2-4.3,0c-2.1,1.1-2.4,5.8,0,7.1c0.5,0.2,4.3,0,4.3,0V-46.9z"/>
						<polygon id="Shape_3_" class="st6" points="122.7,-46.9 134.4,-43.3 122.7,-39.7 						"/>
						<polygon id="Shape_4_" class="st7" points="130.7,-44.4 130.7,-42.1 134.4,-43.3 						"/>
						<path id="Shape_5_" class="st6" d="M10.7-46.9c0,0,1.2,1.2,0,2.5c0,0,1.4,1.4-0.2,2.4c0,0,1.4,1.3,0,2.5l2.3-0.1v-7.1
							L10.7-46.9z"/>
						<path id="Shape_6_" class="st8" d="M122.7-46.9H12.9v2.4h109.9C124.4-45.6,122.7-46.9,122.7-46.9z"/>
						<path id="Shape_7_" class="st9" d="M122.7-44.5H12.9v2.4h109.9C124.4-43.3,122.7-44.5,122.7-44.5z"/>
						<path id="Shape_8_" class="st8" d="M122.7-42.1H12.9v2.4h109.9C124.4-40.9,122.7-42.1,122.7-42.1z"/>
					</g>
					<g id="Clips_2_" transform="translate(246.000000, 108.000000)">
						<path id="Shape_9_" class="st3" d="M30.4,31.9l-7.8-7.8c0,0-2-1.6,0-3.6s3.6-0.4,3.6-0.4l10.1,10.1c0,0,1.1,1.1-0.2,2.4
							c-1.3,1.3-2.3,0.2-2.3,0.2l-7.5-7.5c0,0-0.9-0.7-0.2-1.5c0.9-0.9,1.6,0.2,1.6,0.2l4.8,4.8c0,0,0.4,0.4,0.8,0.1
							c0.3-0.3,0-0.8,0-0.8l-4.8-4.8c0,0-1.5-1.6-3.1-0.2c-1.6,1.6,0.2,3,0.2,3l7.6,7.5c0,0,1.6,1.6,3.6-0.4
							c1.8-1.8,0.8-3.4,0.3-3.8C36.6,29,27,19.5,27,19.5s-2.1-2.5-5.1,0.5c-2.8,2.8,0.1,4.9,0.1,4.9l7.8,7.8c0,0,0.3,0.4,0.7,0
							C30.8,32.2,30.4,31.9,30.4,31.9z"/>
						<path id="Shape_10_" class="st10" d="M35.4-1.2L43.2-9c0,0,1.6-2,3.6,0s0.4,3.6,0.4,3.6L37,4.6c0,0-1.1,1.1-2.4-0.2
							c-1.3-1.3-0.2-2.3-0.2-2.3l7.5-7.5c0,0,0.7-0.9,1.5-0.2C44.2-4.7,43.2-4,43.2-4l-4.8,4.8c0,0-0.4,0.4-0.1,0.8
							c0.3,0.3,0.8,0,0.8,0l4.8-4.8c0,0,1.6-1.5,0.2-3C42.5-7.8,41-6.1,41-6.1l-7.5,7.6c0,0-1.6,1.6,0.4,3.6
							c1.8,1.8,3.4,0.8,3.8,0.3C38.2,4.9,47.8-4.7,47.8-4.7s2.5-2.1-0.5-5.1c-2.8-2.8-4.9,0.1-4.9,0.1l-7.8,7.8c0,0-0.4,0.3,0,0.7
							C35.1-0.9,35.4-1.2,35.4-1.2z"/>
					</g>
					<g id="Group" transform="translate(159.000000, 131.000000)">
						<ellipse id="Oval" class="st11" cx="31.3" cy="-46.4" rx="24.9" ry="1"/>
						<ellipse id="Oval_1_" class="st12" cx="39.8" cy="-28.9" rx="33.4" ry="1"/>
						<ellipse id="Oval_2_" class="st12" cx="39.8" cy="-22.7" rx="33.4" ry="1"/>
						<ellipse id="Oval_3_" class="st12" cx="39.8" cy="-16.5" rx="33.4" ry="1"/>
						<ellipse id="Oval_4_" class="st12" cx="39.8" cy="-10.3" rx="33.4" ry="1"/>
						<ellipse id="Oval_5_" class="st12" cx="39.8" cy="-4.2" rx="33.4" ry="1"/>
						<ellipse id="Oval_6_" class="st12" cx="39.8" cy="2" rx="33.4" ry="1"/>
						<ellipse id="Oval_7_" class="st13" cx="25.5" cy="27.1" rx="19.1" ry="1"/>
						<ellipse id="Oval_8_" class="st13" cx="25.5" cy="33.2" rx="19.1" ry="1"/>
					</g>
					<g id="Clips_1_" transform="translate(75.000000, 0.000000)">
						<path id="Shape_20_" class="st3" d="M24,49H13.6c0,0-2.4,0.3-2.4-2.4c0-2.7,2.2-2.7,2.2-2.7h13.5c0,0,1.5,0,1.5,1.8
							c0,1.7-1.4,1.6-1.4,1.6H16.8c0,0-1.1,0.1-1.1-0.9c0-1.1,1.1-1,1.1-1h6.4c0,0,0.5,0,0.5-0.4c0-0.4-0.5-0.5-0.5-0.5h-6.4
							c0,0-2.1-0.1-2.1,1.9c0,2.1,2.1,1.9,2.1,1.9h10.1c0,0,2.2-0.1,2.2-2.7c0-2.4-1.7-2.7-2.4-2.7s-13.5,0-13.5,0S10,42.7,10,46.7
							c0,3.8,3.3,3.3,3.3,3.3h10.5c0,0,0.4,0,0.4-0.4C24.5,49,24,49,24,49z"/>
						<path id="Shape_21_" class="st5" d="M-4.3,33.6l-7.8-7.9c0,0-2-1.6,0-3.6s3.6-0.4,3.6-0.4l10,10.2c0,0,1.1,1.1-0.2,2.4
							C0,35.6-1,34.5-1,34.5L-8.4,27c0,0-0.9-0.7-0.2-1.5c0.9-0.9,1.6,0.2,1.6,0.2l4.7,4.8c0,0,0.4,0.4,0.8,0.1c0.3-0.3,0-0.8,0-0.8
							l-4.7-4.8c0,0-1.5-1.7-3-0.2c-1.6,1.6,0.2,3.1,0.2,3.1l7.5,7.6c0,0,1.6,1.6,3.6-0.4c1.8-1.8,0.8-3.4,0.3-3.9
							C1.8,30.7-7.7,21-7.7,21s-2.1-2.5-5,0.5c-2.8,2.8,0.1,5,0.1,5l7.8,7.9c0,0,0.3,0.4,0.7,0C-4,33.9-4.3,33.6-4.3,33.6z"/>
						<path id="Shape_22_" class="st14" d="M44,23H33.6c0,0-2.4,0.3-2.4-2.4s2.2-2.7,2.2-2.7h13.5c0,0,1.5,0,1.5,1.8
							c0,1.7-1.4,1.6-1.4,1.6H36.8c0,0-1.1,0.1-1.1-0.9c0-1.1,1.1-1,1.1-1h6.4c0,0,0.5,0,0.5-0.4s-0.5-0.5-0.5-0.5h-6.4
							c0,0-2.1-0.1-2.1,1.9c0,2.1,2.1,1.9,2.1,1.9h10.1c0,0,2.2-0.1,2.2-2.7c0-2.4-1.7-2.7-2.4-2.7s-13.5,0-13.5,0S30,16.7,30,20.7
							c0,3.8,3.3,3.3,3.3,3.3h10.5c0,0,0.4,0,0.4-0.4C44.5,23,44,23,44,23z"/>
						<path id="Shape_23_" class="st10" d="M-34,61V50.6c0,0-0.3-2.4,2.4-2.4s2.7,2.2,2.7,2.2v13.5c0,0,0,1.5-1.8,1.5
							c-1.7,0-1.6-1.4-1.6-1.4V53.8c0,0-0.1-1.1,0.9-1.1c1.1,0,1,1.1,1,1.1v6.4c0,0,0,0.5,0.4,0.5s0.5-0.5,0.5-0.5v-6.4
							c0,0,0.1-2.1-1.9-2.1c-2.1,0-1.9,2.1-1.9,2.1v10.1c0,0,0.1,2.2,2.7,2.2c2.4,0,2.7-1.7,2.7-2.4s0-13.5,0-13.5s0.3-3.1-3.7-3.1
							c-3.8,0-3.3,3.3-3.3,3.3v10.5c0,0,0,0.4,0.4,0.4C-34,61.5-34,61-34,61z"/>
					</g>
				</g>
			</g>
		</g>
	</g>
</g>
</svg>
