<?xml version="1.0" encoding="utf-8"?>
<!-- Generator: Adobe Illustrator 21.1.0, SVG Export Plug-In . SVG Version: 6.00 Build 0)  -->
<svg version="1.1" id="Layer_1" xmlns="http://www.w3.org/2000/svg" xmlns:xlink="http://www.w3.org/1999/xlink" x="0px" y="0px" viewBox="0 0 32 32" style="enable-background:new 0 0 32 32;" xml:space="preserve" width="32" height="32">
<style type="text/css">
	.st0{fill:#FFFFFF;}
	.st1{fill:#30376B;}
	.st2{fill:#6776E6;}
</style>
<path class="st0" d="M16,0C10,0,5.2,5,5.2,10.8c0,8.6,9.6,20,10,20.4L16,32l0.8-0.8c0.4-0.4,10-11.6,10-20.4C26.8,5,22,0,16,0z"/>
<path class="st1" d="M16,0C10,0,5.2,5,5.2,10.8c0,8.6,9.6,20,10,20.4L16,32l0.8-0.8c0.4-0.4,10-11.6,10-20.4C26.8,5,22,0,16,0z"/>
<circle class="st2" cx="16" cy="11" r="6"/>
</svg>
