<?xml version="1.0" encoding="utf-8"?>
<!-- Generator: Adobe Illustrator 22.0.1, SVG Export Plug-In . SVG Version: 6.00 Build 0)  -->
<svg version="1.1" id="Layer_1" xmlns="http://www.w3.org/2000/svg" xmlns:xlink="http://www.w3.org/1999/xlink" x="0px" y="0px"
	 viewBox="0 0 143.5 33.9" style="enable-background:new 0 0 143.5 33.9;" xml:space="preserve">
<style type="text/css">
	.st0{fill:#6776E6;}
	.st1{enable-background:new    ;}
	.st2{fill:#E4E5ED;}
</style>
<path id="Shape" class="st0" d="M4.3,19.3L19.2,4.5c0,0,3.1-3.9,6.9-0.1s0.7,6.9,0.7,6.9L7.6,30.4c0,0-2.1,2.1-4.6-0.4
	c-2.4-2.4-0.3-4.3-0.3-4.3L17,11.4c0,0,1.4-1.8,2.8-0.3c1.6,1.6-0.2,3-0.2,3L10.5,23c0,0-0.7,0.7-0.1,1.4c0.6,0.6,1.5,0,1.5,0
	l9.1-9.1c0,0,3.1-2.8,0.2-5.7c-3-3-5.7,0.2-5.7,0.2L1.1,24.2c0,0-3,3.2,0.7,6.9c3.5,3.5,6.3,1.5,7.3,0.5
	c0.9-0.9,19.2-19.2,19.2-19.2s4.9-4-0.8-9.7c-5.4-5.4-9.4,0.1-9.4,0.1L3.2,17.6c0,0-0.6,0.6,0,1.3C3.7,20,4.3,19.3,4.3,19.3z"/>
<g class="st1">
	<path class="st0" d="M50.3,14.9c-1,0-1.9-0.2-2.8-0.5s-1.6-0.8-2.3-1.5s-1.2-1.4-1.6-2.3S43,8.7,43,7.6c0-1,0.2-2,0.6-2.9
		C44,3.8,44.5,3,45.2,2.4s1.4-1.1,2.3-1.5c0.9-0.4,1.8-0.5,2.8-0.5c0.8,0,1.5,0.1,2.1,0.3s1.2,0.4,1.7,0.8s0.9,0.7,1.3,1.1
		c0.4,0.4,0.7,0.8,0.9,1.2S56.9,4.6,57,5l-2.8,1c0-0.2-0.1-0.4-0.2-0.6s-0.3-0.5-0.5-0.7S53,4.2,52.8,4c-0.3-0.2-0.6-0.4-1-0.5
		S51,3.3,50.5,3.3c-0.8,0-1.5,0.2-2.2,0.6S47,4.8,46.7,5.4s-0.5,1.4-0.5,2.2s0.2,1.5,0.5,2.2s0.9,1.2,1.5,1.6s1.4,0.6,2.2,0.6
		c0.5,0,0.9-0.1,1.3-0.2s0.8-0.3,1-0.5s0.5-0.4,0.8-0.7s0.4-0.5,0.5-0.7s0.2-0.5,0.3-0.7l2.8,1c-0.1,0.4-0.2,0.8-0.4,1.2
		s-0.5,0.8-0.9,1.2s-0.8,0.8-1.3,1.1s-1.1,0.6-1.8,0.8S51.1,14.9,50.3,14.9z"/>
	<path class="st0" d="M58.2,9.9c0-0.9,0.2-1.8,0.7-2.6S60,6,60.8,5.5s1.7-0.7,2.6-0.7S65.2,5,66,5.4s1.4,1,1.9,1.8s0.7,1.6,0.7,2.6
		c0,0.9-0.2,1.8-0.7,2.6s-1.1,1.4-1.9,1.8s-1.7,0.7-2.6,0.7c-1,0-1.8-0.2-2.6-0.6s-1.4-1-1.9-1.8C58.4,11.7,58.2,10.9,58.2,9.9z
		 M61.8,8.1c-0.5,0.5-0.7,1-0.7,1.8s0.2,1.3,0.7,1.8s1,0.7,1.7,0.7c0.7,0,1.2-0.2,1.7-0.7s0.7-1,0.7-1.8c0-0.7-0.2-1.3-0.7-1.8
		s-1-0.7-1.7-0.7S62.2,7.7,61.8,8.1z"/>
	<path class="st0" d="M80.3,11.1L80.3,11.1l1.8-6h2.8l-3,9.6h-2.8l-2-6.1l0,0l-2,6.1h-2.7l-3-9.6h2.9l1.7,6l0,0l1.8-6h2.6L80.3,11.1
		z"/>
	<path class="st0" d="M85.7,9.9c0-0.9,0.2-1.8,0.7-2.6s1.1-1.4,1.9-1.8c0.8-0.4,1.7-0.7,2.6-0.7s1.8,0.2,2.6,0.6
		c0.8,0.4,1.4,1,1.9,1.8s0.7,1.6,0.7,2.6c0,0.9-0.2,1.8-0.7,2.6s-1.1,1.4-1.9,1.8c-0.8,0.4-1.7,0.7-2.6,0.7c-1,0-1.8-0.2-2.6-0.6
		s-1.4-1-1.9-1.8C85.9,11.7,85.7,10.9,85.7,9.9z M89.2,8.1c-0.5,0.5-0.7,1-0.7,1.8s0.2,1.3,0.7,1.8s1,0.7,1.7,0.7s1.2-0.2,1.7-0.7
		s0.7-1,0.7-1.8c0-0.7-0.2-1.3-0.7-1.8s-1-0.7-1.7-0.7S89.7,7.7,89.2,8.1z"/>
	<path class="st0" d="M104.1,5.1v2.8c-0.2,0-0.5-0.1-0.9-0.1c-0.7,0-1.2,0.2-1.7,0.7s-0.6,1.1-0.6,2v4.2h-2.8V5.1h2.7v1.4l0,0
		c0.3-0.5,0.6-0.9,1-1.1s0.9-0.4,1.5-0.4C103.6,5,103.9,5,104.1,5.1z"/>
	<path class="st0" d="M108.7,10.2L108.7,10.2l-0.1,4.6h-2.8V0h2.8v8.8l3.3-3.8h3.6l-3.9,4.4l4,5.2H112L108.7,10.2z"/>
	<path class="st0" d="M117.1,3c-0.3-0.3-0.5-0.8-0.5-1.2s0.2-0.9,0.5-1.2s0.7-0.5,1.2-0.5s0.9,0.2,1.3,0.5c0.3,0.3,0.5,0.8,0.5,1.2
		c0,0.5-0.2,0.9-0.5,1.2s-0.8,0.5-1.3,0.5C117.8,3.5,117.4,3.3,117.1,3z M116.9,5.1v9.6h2.8V5.1H116.9z"/>
	<path class="st0" d="M128.5,14.7V9.4c0-0.6-0.1-1-0.4-1.4c-0.3-0.3-0.7-0.5-1.3-0.5c-0.6,0-1,0.2-1.3,0.5c-0.3,0.3-0.4,0.8-0.4,1.3
		v5.3h-2.8V5.1h2.8v1.2l0,0c0.2-0.3,0.4-0.6,0.7-0.8s0.6-0.4,0.8-0.4s0.5-0.1,0.7-0.2c0.2,0,0.4,0,0.5,0c0.6,0,1.1,0.1,1.6,0.3
		s0.8,0.5,1.1,0.9s0.5,0.8,0.6,1.2c0.1,0.4,0.2,0.9,0.2,1.4v6H128.5z"/>
	<path class="st0" d="M143.5,5.1v9.1c0,0.9-0.1,1.6-0.4,2.3s-0.6,1.2-1.1,1.7c-0.5,0.4-1,0.8-1.7,1s-1.3,0.3-2.1,0.3
		c-0.7,0-1.3-0.1-1.9-0.3c-0.6-0.2-1.1-0.5-1.5-0.8s-0.7-0.7-1-1.1s-0.4-0.8-0.5-1.3l2.6-0.7c0.1,0.5,0.3,0.9,0.7,1.3
		c0.4,0.3,0.9,0.5,1.5,0.5c0.3,0,0.7,0,1-0.1s0.6-0.2,0.8-0.4c0.2-0.2,0.4-0.5,0.6-0.8s0.2-0.7,0.2-1.1v-1.1l0,0
		c-0.7,0.9-1.6,1.3-2.8,1.3c-0.9,0-1.7-0.2-2.4-0.7c-0.7-0.4-1.3-1-1.6-1.8c-0.4-0.7-0.6-1.6-0.6-2.5c0-0.6,0.1-1.2,0.3-1.8
		s0.5-1.1,0.9-1.6s0.9-0.8,1.4-1.1c0.6-0.3,1.2-0.4,1.9-0.4c0.2,0,0.4,0,0.6,0s0.4,0.1,0.7,0.2s0.6,0.2,0.8,0.4
		c0.3,0.2,0.5,0.4,0.8,0.7l0,0V5.1H143.5z M140.8,9.9c0-0.7-0.2-1.3-0.7-1.7c-0.4-0.5-1-0.7-1.7-0.7s-1.2,0.2-1.7,0.7
		s-0.7,1-0.7,1.7s0.2,1.3,0.7,1.7c0.4,0.4,1,0.7,1.7,0.7s1.2-0.2,1.7-0.7S140.8,10.6,140.8,9.9z"/>
</g>
<text transform="matrix(1 0 0 1 145.1823 20)" class="st0" style="font-family:'GorditaBold'; font-size:18px;"> </text>
<g>
	<path class="st0" d="M49.2,28.8c0,0.6-0.1,1.2-0.3,1.7s-0.5,0.9-0.8,1.2c-0.3,0.3-0.8,0.6-1.3,0.8s-1,0.4-1.5,0.5s-1.1,0.1-1.6,0.1
		h-6.6V17.4h6.5c0.6,0,1.3,0.1,1.8,0.3s1.1,0.4,1.6,0.8s0.9,0.8,1.1,1.3s0.4,1.1,0.4,1.8c0,1.5-0.7,2.6-2.2,3.3l0,0
		c1,0.4,1.7,0.9,2.2,1.4S49.2,27.8,49.2,28.8z M45.4,22.1c0-0.3-0.1-0.6-0.2-0.8s-0.3-0.4-0.5-0.5s-0.5-0.2-0.7-0.3
		s-0.5-0.1-0.8-0.1h-2.9v3.4H43c0.3,0,0.6,0,0.9-0.1s0.5-0.1,0.8-0.2s0.5-0.3,0.6-0.5S45.4,22.4,45.4,22.1z M46.1,28.3
		c0-1.2-0.9-1.7-2.6-1.7h-3.3v3.5h3.4c0.3,0,0.6,0,0.9-0.1s0.5-0.1,0.8-0.3s0.4-0.3,0.6-0.5S46.1,28.7,46.1,28.3z"/>
	<path class="st0" d="M61.8,28.6H54c0.1,0.6,0.4,1.2,0.9,1.5s1.1,0.6,1.7,0.6c0.5,0,0.9-0.1,1.4-0.4s0.7-0.6,0.9-1l2.6,0.9
		c-0.3,1-1,1.8-1.8,2.3s-1.9,0.8-2.9,0.8c-1.1,0-2.1-0.2-2.9-0.7s-1.6-1.1-2.1-2S51,28.8,51,27.7c0-1,0.3-1.9,0.8-2.8s1.2-1.5,2.1-2
		s1.8-0.7,2.8-0.7c1.6,0,2.9,0.5,3.9,1.5s1.5,2.3,1.5,3.9C61.9,28,61.9,28.4,61.8,28.6z M54.2,26.5h4.6c0-0.2-0.1-0.4-0.2-0.6
		s-0.2-0.4-0.4-0.6s-0.4-0.3-0.7-0.5s-0.6-0.2-1-0.2c-0.6,0-1.2,0.2-1.6,0.6S54.2,26.1,54.2,26.5z"/>
	<path class="st0" d="M70.7,22.4v3.1c-0.3-0.1-0.6-0.1-1-0.1c-0.8,0-1.4,0.3-1.8,0.8s-0.7,1.3-0.7,2.2v4.7h-3.1V22.4h3V24l0,0
		c0.3-0.6,0.7-1,1.1-1.3s1-0.4,1.6-0.4C70.1,22.3,70.4,22.3,70.7,22.4z"/>
	<path class="st0" d="M72.6,16.8h3.1v16.3h-3.1V16.8z"/>
	<path class="st0" d="M78.8,20c-0.4-0.4-0.6-0.8-0.6-1.4s0.2-1,0.6-1.4s0.8-0.6,1.3-0.6s1,0.2,1.4,0.6s0.6,0.8,0.6,1.4
		c0,0.5-0.2,1-0.6,1.4s-0.8,0.6-1.4,0.6C79.6,20.6,79.2,20.4,78.8,20z M78.6,22.4v10.7h3.1V22.4H78.6z"/>
	<path class="st0" d="M91.5,33.1v-5.9c0-0.6-0.2-1.1-0.5-1.5s-0.8-0.6-1.4-0.6s-1.1,0.2-1.4,0.6s-0.5,0.9-0.5,1.5v5.9h-3.1V22.4h3.1
		v1.4l0,0c0.2-0.3,0.4-0.6,0.7-0.8s0.6-0.4,0.9-0.5s0.6-0.2,0.8-0.2s0.4-0.1,0.5-0.1c0.7,0,1.2,0.1,1.7,0.4s0.9,0.6,1.2,1
		s0.5,0.8,0.7,1.3s0.2,1,0.2,1.6v6.6H91.5z"/>
</g>
<g>
	<path class="st2" d="M98.2,33.1v-9.4h3.4c0.6,0,1.1,0.1,1.5,0.3s0.8,0.4,1.1,0.8s0.4,0.8,0.4,1.3c0,0.1,0,0.2,0,0.3s0,0.3-0.1,0.4
		s-0.1,0.3-0.2,0.5s-0.2,0.3-0.4,0.5s-0.4,0.3-0.7,0.4c0.3,0.1,0.6,0.2,0.9,0.4s0.4,0.4,0.6,0.6s0.2,0.4,0.3,0.7s0.1,0.4,0.1,0.6
		c0,0.4-0.1,0.8-0.3,1.2s-0.4,0.6-0.7,0.8s-0.7,0.4-1.1,0.5s-0.8,0.2-1.3,0.2H98.2z M99.2,24.6v3.3h2.2c0.7,0,1.3-0.2,1.6-0.5
		s0.5-0.7,0.5-1.2c0-0.2,0-0.4-0.1-0.6s-0.2-0.3-0.3-0.4s-0.3-0.2-0.5-0.3s-0.4-0.1-0.6-0.2s-0.4-0.1-0.6-0.1H99.2z M99.2,28.7v3.4
		h2.5c0.2,0,0.4,0,0.6-0.1s0.4-0.1,0.6-0.2s0.4-0.2,0.5-0.3s0.3-0.3,0.4-0.5s0.1-0.4,0.1-0.7s-0.1-0.5-0.2-0.7s-0.2-0.4-0.4-0.5
		s-0.4-0.2-0.6-0.3s-0.4-0.1-0.7-0.2s-0.4,0-0.7,0H99.2z"/>
	<path class="st2" d="M112.4,30.2h-5.2c0,0.6,0.3,1.1,0.7,1.6s1,0.6,1.6,0.6c0.5,0,0.9-0.1,1.2-0.4s0.6-0.6,0.7-1l0.8,0.3
		c-0.2,0.6-0.5,1.1-1,1.4s-1.1,0.5-1.8,0.5c-0.6,0-1.2-0.1-1.7-0.4s-0.9-0.7-1.2-1.2s-0.4-1.1-0.4-1.7c0-0.6,0.1-1.1,0.4-1.6
		s0.6-0.9,1.1-1.2s1-0.5,1.6-0.5c0.6,0,1.2,0.1,1.7,0.4s0.8,0.7,1,1.2s0.3,1.1,0.3,1.7C112.4,29.9,112.4,30,112.4,30.2z M107.2,29.4
		h4.2c-0.1-0.6-0.3-1.1-0.6-1.4s-0.8-0.5-1.4-0.5c-0.5,0-1,0.2-1.4,0.6S107.3,28.8,107.2,29.4z"/>
	<path class="st2" d="M116.2,33.1c-0.3,0-0.6,0-0.9-0.1s-0.4-0.2-0.6-0.4s-0.2-0.3-0.3-0.5s-0.1-0.4-0.1-0.7v-3.9h-1.2v-0.8h1.2
		v-1.9h0.9v1.9h1.6v0.8h-1.6v3.9c0,0.6,0.3,0.9,1,0.9c0.2,0,0.4,0,0.6,0V33C116.7,33.1,116.4,33.1,116.2,33.1z"/>
	<path class="st2" d="M122.3,29.4V29c0-0.5-0.1-0.9-0.4-1.2s-0.7-0.4-1.2-0.4c-0.3,0-0.5,0-0.7,0.1s-0.4,0.2-0.5,0.3
		s-0.2,0.3-0.3,0.4s-0.1,0.3-0.2,0.5l-0.9-0.2c0-0.1,0-0.3,0.1-0.4s0.2-0.3,0.3-0.5s0.3-0.4,0.5-0.5s0.4-0.3,0.7-0.4s0.6-0.2,1-0.2
		c1.2,0,1.9,0.4,2.3,1.3c0.1,0.3,0.2,0.6,0.2,1.1v1.8c0,1.1,0,1.9,0.1,2.3h-0.9c-0.1-0.3-0.1-0.7-0.1-1.1h0
		c-0.5,0.8-1.3,1.2-2.2,1.2c-0.6,0-1.2-0.2-1.6-0.5s-0.6-0.8-0.6-1.4v-0.1c0-0.3,0.1-0.5,0.2-0.7s0.2-0.4,0.4-0.5s0.4-0.3,0.6-0.3
		s0.5-0.2,0.7-0.2s0.5-0.1,0.7-0.1H122.3z M122.3,30.2h-1.8c-0.2,0-0.4,0-0.5,0s-0.3,0.1-0.5,0.2s-0.3,0.2-0.4,0.3S119,31,119,31.2
		c0,0.4,0.1,0.6,0.4,0.8s0.6,0.3,1,0.3c0.6,0,1.1-0.2,1.4-0.6s0.6-0.8,0.6-1.4V30.2z"/>
</g>
</svg>
