<?xml version="1.0" encoding="utf-8"?>
<!-- Generator: Adobe Illustrator 22.0.1, SVG Export Plug-In . SVG Version: 6.00 Build 0)  -->
<svg version="1.1" id="Layer_1" xmlns="http://www.w3.org/2000/svg" xmlns:xlink="http://www.w3.org/1999/xlink" x="0px" y="0px"
	 viewBox="0 0 100 100" style="enable-background:new 0 0 100 100;" xml:space="preserve">
<style type="text/css">
	.st0{fill:#30376B;}
</style>
<path class="st0" d="M88.7,39.3L88.7,39.3V37c0-3-2.4-5.4-5.4-5.4h-2.7h-0.7H69.7c-3,0-5.4,2.4-5.4,5.4v2.3l-26.8,0H0.6V51h3.9v36.9
	h3.9V84v-8.3V51h21.3v24.6V84v3.9h7.8V51h26.8h1.5c1,1,2.4,1.7,3.9,1.7h5.4V58h-1.9h-14h-5.4c-3,0-5.4,2.4-5.4,5.4v2.7h12.3h3.7
	v12.1h-5.8c-5.3,0-9.7,4.3-9.7,9.7h3.9c0-3.2,2.6-5.8,5.8-5.8h5.8c3.2,0,5.8,2.6,5.8,5.8h3.9c0-2.2-0.7-4.2-1.9-5.8h1.9
	c3.2,0,5.8,2.6,5.8,5.8h3.9c0,0,0-0.1,0-0.1h5.1V66.1v-1.4v-1.4V51h7.4V39.3L88.7,39.3z M37.5,47.1H25.8H4.5v-3.9h33V47.1z M51,63.4
	c0-1.5,1.2-2.7,2.7-2.7h21.8c1.5,0,2.7,1.2,2.7,2.7H51z M80.7,80.8c-1.7-1.6-4-2.6-6.6-2.6h-5.8V66.1h3.4h9V80.8z M80.7,58.4
	c-0.5-0.2-1.1-0.3-1.7-0.4v-5.3h0.9h0.7h0.1V58.4z M83.2,42v3.5v1.8c0,1.5-1.2,2.7-2.7,2.7h-0.7h-2h-8.1c-1.5,0-2.7-1.2-2.7-2.7
	v-1.8V42v-5c0-1.5,1.2-2.7,2.7-2.7h8.1h2h0.7c1.5,0,2.7,1.2,2.7,2.7V42z"/>
<polygon class="st0" points="11.2,31.9 11.2,39.5 15,39.5 15,35.7 19,35.7 19,39.5 23,39.5 23,31.9 "/>
</svg>
