<?xml version="1.0" encoding="utf-8"?>
<!-- Generator: Adobe Illustrator 19.1.0, SVG Export Plug-In . SVG Version: 6.00 Build 0)  -->
<svg version="1.1" id="Layer_3" xmlns="http://www.w3.org/2000/svg" xmlns:xlink="http://www.w3.org/1999/xlink" x="0px" y="0px"
	 viewBox="0 0 100 100" style="enable-background:new 0 0 100 100;" xml:space="preserve">
<style type="text/css">
	.st0{fill:#30376B;}
</style>
<path class="st0" d="M21.4,82.4h33V98h11.7l13.6-15.5V4.7H21.4V82.4z M62.2,94.1h-3.9V20.2h3.9V94.1z M69,57.2
	c-1.6,0-2.9-1.3-2.9-2.9c0-1.6,1.3-2.9,2.9-2.9c1.6,0,2.9,1.3,2.9,2.9C71.9,55.9,70.6,57.2,69,57.2z M75.8,8.6l-9.7,7.8h-5.6
	l9.3-7.8H75.8z M25.3,8.6h38.5l-9.3,7.8v62.2H25.3V8.6L25.3,8.6z"/>
</svg>
