<?xml version="1.0" encoding="utf-8"?>
<!-- Generator: Adobe Illustrator 22.0.1, SVG Export Plug-In . SVG Version: 6.00 Build 0)  -->
<svg version="1.1" id="Layer_1" xmlns="http://www.w3.org/2000/svg" xmlns:xlink="http://www.w3.org/1999/xlink" x="0px" y="0px"
	 viewBox="0 0 100 100" style="enable-background:new 0 0 100 100;" xml:space="preserve">
<style type="text/css">
	.st0{fill:#30376B;}
</style>
<path class="st0" d="M88.7,39.3V39c0-3-2.4-5.4-5.4-5.4h-2.7l0,0h-0.7H69.7c-3,0-5.4,2.4-5.4,5.4v0.4H37.5H0.6V51h3.9v36.9h3.9V84
	v-8.3V51h21.3v24.6V84v3.9h7.8V51h26.8v7h-5.4c-3,0-5.4,2.4-5.4,5.4l0,0v2.7v21.7h8.2V66.1h4.1v21.7h6.8H78V66.1h2.7v21.7h8.2V66.1
	v-1.4v-1.4V51h7.4V39.3H88.7z M37.5,47.1H25.8H4.5v-3.9h33V47.1z M58.8,85.1h-2.7v-19h2.7V85.1z M75.1,85.1h-2.7v-19h2.7V85.1z
	 M69.7,63.4H56.1c0-1.5,1.2-2.7,2.7-2.7h13.6c1.5,0,2.7,1.2,2.7,2.7H69.7z M83.2,58H72.4H67V39c0-1.5,1.2-2.7,2.7-2.7h8.1h2h0.7
	c1.5,0,2.7,1.2,2.7,2.7C83.2,39,83.2,58,83.2,58z"/>
</svg>
