<?xml version="1.0" encoding="utf-8"?>
<!-- Generator: Adobe Illustrator 19.1.0, SVG Export Plug-In . SVG Version: 6.00 Build 0)  -->
<svg version="1.1" id="Layer_2" xmlns="http://www.w3.org/2000/svg" xmlns:xlink="http://www.w3.org/1999/xlink" x="0px" y="0px"
	 viewBox="0 0 100 100" style="enable-background:new 0 0 100 100;" xml:space="preserve">
<style type="text/css">
	.st0{fill:#30376B;}
</style>
<path class="st0" d="M93.5,70.4c3.2,0,5.8-2.6,5.8-5.8l0-5.8V35.6c0-3.2-2.6-5.8-5.8-5.8h-3.9h0h-3.9v-3.9h0h3.9
	c3.2,0,5.8-2.6,5.8-5.8v-3.9c0-3.2-2.6-5.8-5.8-5.8H78c-3.2,0-5.8,2.6-5.8,5.8v3.9c0,3.2,2.6,5.8,5.8,5.8h3.9v3.9h-7.7
	c-3.2,0-5.8,2.6-5.8,5.8v3.9h-31h-3.6v-7.6v-7.7H11.2v7.7v7.6H0.6v11.6h3.9v36.8h3.9h17.4h11.6V51.1h17.8c0.8,2.3,2.9,3.9,5.5,3.9
	h7.7v3.9h-7.7c-3.2,0-5.8,2.6-5.8,5.8c0,3.2,2.6,5.8,5.8,5.8h15.5v7.7h-5.8c-5.3,0-9.7,4.3-9.7,9.7h3.9c0-3.2,2.6-5.8,5.8-5.8h5.8
	c3.2,0,5.8,2.6,5.8,5.8h3.9c0-2.2-0.7-4.2-1.9-5.8h1.9c3.2,0,5.8,2.6,5.8,5.8h3.9c0-5.3-4.3-9.7-9.7-9.7h-5.8v-7.7H93.5z M15,28
	h14.8v3.9H15V28z M15,35.7h14.8v3.8H15V35.7z M29.6,84H8.3V51.1h21.3V84z M37.4,47.2H25.8H4.5v-3.9h32.9V47.2z M78,22.1
	c-1.1,0-1.9-0.9-1.9-1.9v-3.9c0-1.1,0.9-1.9,1.9-1.9h7.7c1.1,0,1.9,0.9,1.9,1.9v3.9c0,1.1-0.9,1.9-1.9,1.9H78z M72.2,55v-9.7v-1.9
	v-3.9v-3.9c0-1.1,0.9-1.9,1.9-1.9h15.5c1.1,0,1.9,0.9,1.9,1.9v9.7h-8.7c-2.7,0-4.8,2.2-4.8,4.8c0,2.7,2.2,4.8,4.8,4.8h8.7v3.9H78
	c0,0,0,0,0,0l0,0h-5.8V55z M60.6,51.1c-1.1,0-1.9-0.9-1.9-1.9c0-1.1,0.9-1.9,1.9-1.9h7.7v3.9H60.6z M60.6,66.6
	c-1.1,0-1.9-0.9-1.9-1.9c0-1.1,0.9-1.9,1.9-1.9H80c1.1,0,1.9,0.9,1.9,1.9c0,1.1-0.9,1.9-1.9,1.9H60.6z"/>
</svg>
